<svg xmlns="http://www.w3.org/2000/svg" viewBox="0 0 800 600" role="img" aria-label="Cooking Oil">
  <defs>
    <linearGradient id="bg" x1="0" y1="0" x2="1" y2="1">
      <stop offset="0%" stop-color="#fff4cc"/>
      <stop offset="100%" stop-color="#f1cb67"/>
    </linearGradient>
  </defs>
  <rect width="800" height="600" rx="40" fill="url(#bg)"/>
  <rect x="250" y="95" width="300" height="380" rx="38" fill="#fffdf2" opacity="0.94"/>
  <path d="M340 170h120l24 54v190c0 20-16 36-36 36h-96c-20 0-36-16-36-36V224z" fill="#f3b52e" stroke="#d49a00" stroke-width="4"/>
  <path d="M400 245c36 40 42 82 42 100 0 30-22 54-42 54s-42-24-42-54c0-18 6-60 42-100z" fill="#fff0a6" opacity="0.9"/>
  <text x="400" y="430" text-anchor="middle" font-family="Arial, sans-serif" font-size="56" font-weight="700" fill="#7c6000">Cooking Oil</text>
  <text x="400" y="482" text-anchor="middle" font-family="Arial, sans-serif" font-size="26" fill="#a08115">Light and clean</text>
</svg>
