<svg xmlns="http://www.w3.org/2000/svg" viewBox="0 0 800 600" role="img" aria-label="Mushroom">
  <defs>
    <linearGradient id="bg" x1="0" y1="0" x2="1" y2="1">
      <stop offset="0%" stop-color="#f3efe9"/>
      <stop offset="100%" stop-color="#d8cfc1"/>
    </linearGradient>
  </defs>
  <rect width="800" height="600" rx="40" fill="url(#bg)"/>
  <rect x="175" y="110" width="450" height="360" rx="38" fill="#fffdf8" opacity="0.92"/>
  <path d="M270 285c0-70 57-126 130-126s130 56 130 126c0 20-16 36-36 36H306c-20 0-36-16-36-36z" fill="#b88b6a"/>
  <path d="M360 322c0-22 18-40 40-40s40 18 40 40v58c0 18-14 32-32 32h-16c-18 0-32-14-32-32z" fill="#f1e7d8"/>
  <circle cx="350" cy="252" r="10" fill="#fff8ef"/>
  <circle cx="400" cy="228" r="10" fill="#fff8ef"/>
  <circle cx="450" cy="252" r="10" fill="#fff8ef"/>
  <text x="400" y="430" text-anchor="middle" font-family="Arial, sans-serif" font-size="58" font-weight="700" fill="#5a4636">Mushroom</text>
  <text x="400" y="482" text-anchor="middle" font-family="Arial, sans-serif" font-size="26" fill="#7d6c5b">Farm fresh</text>
</svg>
