<svg xmlns="http://www.w3.org/2000/svg" viewBox="0 0 800 600" role="img" aria-label="Rice">
  <defs>
    <linearGradient id="bg" x1="0" y1="0" x2="1" y2="1">
      <stop offset="0%" stop-color="#f8f1dc"/>
      <stop offset="100%" stop-color="#e8d7a8"/>
    </linearGradient>
  </defs>
  <rect width="800" height="600" rx="40" fill="url(#bg)"/>
  <rect x="170" y="110" width="460" height="360" rx="42" fill="#fffaf0" opacity="0.92"/>
  <ellipse cx="400" cy="295" rx="145" ry="85" fill="#f3e5c8"/>
  <g fill="#ffffff" stroke="#c9b48b" stroke-width="6">
    <ellipse cx="330" cy="260" rx="28" ry="16" transform="rotate(-18 330 260)"/>
    <ellipse cx="385" cy="235" rx="28" ry="16" transform="rotate(12 385 235)"/>
    <ellipse cx="445" cy="255" rx="28" ry="16" transform="rotate(-10 445 255)"/>
    <ellipse cx="480" cy="295" rx="28" ry="16" transform="rotate(18 480 295)"/>
    <ellipse cx="420" cy="330" rx="28" ry="16" transform="rotate(-8 420 330)"/>
    <ellipse cx="350" cy="330" rx="28" ry="16" transform="rotate(15 350 330)"/>
  </g>
  <text x="400" y="430" text-anchor="middle" font-family="Arial, sans-serif" font-size="64" font-weight="700" fill="#6f5c31">Rice</text>
  <text x="400" y="485" text-anchor="middle" font-family="Arial, sans-serif" font-size="28" fill="#8a7440">Staple grain</text>
</svg>
