<svg xmlns="http://www.w3.org/2000/svg" viewBox="0 0 800 600" role="img" aria-label="Vegetables">
  <defs>
    <linearGradient id="bg" x1="0" y1="0" x2="1" y2="1">
      <stop offset="0%" stop-color="#e6f8e9"/>
      <stop offset="100%" stop-color="#b8e6bf"/>
    </linearGradient>
  </defs>
  <rect width="800" height="600" rx="40" fill="url(#bg)"/>
  <rect x="160" y="120" width="480" height="350" rx="36" fill="#f8fff8" opacity="0.92"/>
  <circle cx="310" cy="285" r="70" fill="#ff7e6b"/>
  <circle cx="460" cy="285" r="70" fill="#7bc96f"/>
  <path d="M310 220c22 18 35 40 38 70-24-3-44-13-62-30-10-18-11-33 24-40z" fill="#2b8a3e"/>
  <path d="M460 220c20 15 32 34 36 60-20-3-38-10-54-23-10-15-12-29 18-37z" fill="#2f9e44"/>
  <text x="400" y="410" text-anchor="middle" font-family="Arial, sans-serif" font-size="58" font-weight="700" fill="#2f6b34">Vegetables</text>
  <text x="400" y="462" text-anchor="middle" font-family="Arial, sans-serif" font-size="26" fill="#4f7d56">Fresh and seasonal</text>
</svg>
